<?xml version="1.0" encoding="UTF-8" standalone="no"?>
<!-- Created with Inkscape (http://www.inkscape.org/) -->

<svg
   width="500"
   height="500"
   viewBox="0 0 132.29166 132.29167"
   version="1.1"
   id="svg1"
   sodipodi:docname="Net-Work.svg"
   inkscape:version="1.3.2 (091e20ef0f, 2023-11-25)"
   xml:space="preserve"
   inkscape:export-filename="../Software/Net-Work-Docs/static/net_work_logo.png"
   inkscape:export-xdpi="92.160004"
   inkscape:export-ydpi="92.160004"
   xmlns:inkscape="http://www.inkscape.org/namespaces/inkscape"
   xmlns:sodipodi="http://sodipodi.sourceforge.net/DTD/sodipodi-0.dtd"
   xmlns="http://www.w3.org/2000/svg"
   xmlns:svg="http://www.w3.org/2000/svg"><sodipodi:namedview
     id="namedview1"
     pagecolor="#505050"
     bordercolor="#ffffff"
     borderopacity="1"
     inkscape:showpageshadow="0"
     inkscape:pageopacity="0"
     inkscape:pagecheckerboard="1"
     inkscape:deskcolor="#505050"
     inkscape:document-units="px"
     inkscape:zoom="1"
     inkscape:cx="179.5"
     inkscape:cy="258.49999"
     inkscape:window-width="1920"
     inkscape:window-height="1004"
     inkscape:window-x="0"
     inkscape:window-y="0"
     inkscape:window-maximized="1"
     inkscape:current-layer="g130"
     showgrid="false"
     inkscape:lockguides="false"
     showguides="false"><sodipodi:guide
       position="0,515.99997"
       orientation="0,1950.2362"
       id="guide36"
       inkscape:locked="false" /><sodipodi:guide
       position="189.1185,-31.018676"
       orientation="1950.2362,0"
       id="guide37"
       inkscape:locked="false" /><sodipodi:guide
       position="515.99998,-3.8146973e-06"
       orientation="0,-1950.2362"
       id="guide38"
       inkscape:locked="false" /><sodipodi:guide
       position="0,-3.8146973e-06"
       orientation="-1950.2362,0"
       id="guide39"
       inkscape:locked="false" /><inkscape:grid
       id="grid40"
       units="px"
       originx="0"
       originy="0"
       spacingx="0.66145833"
       spacingy="0.66145833"
       empcolor="#007fbf"
       empopacity="0.30196078"
       color="#0099e5"
       opacity="0.14901961"
       empspacing="5"
       dotted="false"
       gridanglex="30"
       gridanglez="30"
       visible="false" /><sodipodi:guide
       position="53.172051,155.58873"
       orientation="0,500"
       id="guide107"
       inkscape:locked="false" /><sodipodi:guide
       position="132.29166,132.29166"
       orientation="500,0"
       id="guide108"
       inkscape:locked="false" /><sodipodi:guide
       position="132.29166,0"
       orientation="0,-500"
       id="guide109"
       inkscape:locked="false" /><sodipodi:guide
       position="67.759687,23.255425"
       orientation="-500,0"
       id="guide110"
       inkscape:locked="false" /><sodipodi:guide
       position="65.038821,-53.518075"
       orientation="0,500"
       id="guide111"
       inkscape:locked="false" /><sodipodi:guide
       position="77.759594,19.80396"
       orientation="500,0"
       id="guide112"
       inkscape:locked="false" /><sodipodi:guide
       position="87.953141,-43.73415"
       orientation="0,-500"
       id="guide113"
       inkscape:locked="false" /><sodipodi:guide
       position="62.746094,57.283851"
       orientation="-500,0"
       id="guide114"
       inkscape:locked="false" /></sodipodi:namedview><defs
     id="defs1"><rect
       x="-51.595184"
       y="619.97821"
       width="447.33542"
       height="246.40399"
       id="rect1" /></defs><g
     inkscape:groupmode="layer"
     id="g130"
     inkscape:label="V1"
     style="display:inline"><path
       style="display:inline;fill:#333333;stroke:none;stroke-width:25;stroke-linecap:square;stroke-dasharray:none;fill-opacity:0"
       d="M 0,132.29166 H 132.29166 L 66.14583,17.197914 Z"
       id="path120"
       inkscape:label="Background" /><path
       style="color:#000000;display:inline;fill:#ffffff;stroke:none;stroke-linecap:square;-inkscape-stroke:none"
       d="M 97.346911,71.495219 C 79.528967,81.828179 61.712084,92.162967 43.894768,102.49701 l -0.188656,0.10942 3.776259,6.47985 0.0341,-0.0198 44.919586,-26.05336 c 2.889281,-1.663884 5.774215,-3.334487 8.645083,-5.02925 z"
       id="path121"
       sodipodi:nodetypes="cccccccc"
       inkscape:label="Shovel" /><g
       id="g125"
       inkscape:label="Human"><path
         id="path122"
         style="color:#000000;display:inline;fill:#ffffff;stroke-linecap:square;-inkscape-stroke:none"
         d="m 64.452913,61.145621 5.000211,10.000423 h 16.162838 l 4.94285,8.597925 1.877405,3.269051 8.644283,-5.028774 -1.851933,-3.222402 -6.986653,-12.156364 -0.07855,-0.136942 h -5.17e-4 L 91.400105,61.145621 H 85.990099 69.453124 Z"
         inkscape:label="LeftArm"
         sodipodi:nodetypes="cccccccccccccc" /><path
         id="path123"
         style="color:#000000;fill:#b3b3b3;stroke-linecap:square;-inkscape-stroke:none"
         d="m 80.837959,85.777192 -2.490287,4.336169 -9.921875,17.263549 -0.66611,1.15807 v 0.23667 0.26459 4.73511 18.5198 h 9.999907 v -18.5198 -2.56729 l 9.257832,-16.108574 z"
         inkscape:label="RightLeg" /><path
         style="color:#000000;fill:#b3b3b3;stroke-linecap:square;-inkscape-stroke:none"
         d="m 62.652344,56.273439 c 0.177535,6.24286 0.09554,12.489681 0.09375,18.734375 L 48.438476,99.904052 65.748153,89.852966 72.759766,77.652346 Z"
         id="path124"
         sodipodi:nodetypes="cccccc"
         inkscape:label="RightArm" /><path
         style="color:#000000;display:inline;fill:#ffffff;stroke-linecap:square;-inkscape-stroke:none"
         d="m 64.681641,49.398437 -8.669922,4.982422 2.492187,4.333985 42.260944,73.535146 11.5908,0.0985 -1.46502,-2.54772 -43.716802,-76.068358 z"
         id="path125"
         sodipodi:nodetypes="cccccccc"
         inkscape:label="Torso" /><circle
         style="fill:#ffffff;stroke:none;stroke-width:25;stroke-linecap:square;stroke-dasharray:none"
         id="circle125"
         cx="62.838543"
         cy="56.223957"
         r="9.921875"
         inkscape:label="Head" /></g><path
       style="display:inline;fill:#ffffff;stroke:none;stroke-width:100;stroke-linecap:square;stroke-dasharray:none"
       d="m 13.12633,109.45171 -3.29334,5.7304 a 19.843752,19.843752 0 0 1 10.01076,17.10955 h 6.61458 a 26.458336,26.458336 0 0 0 -13.332,-22.83995 z"
       id="path126"
       inkscape:label="2" /><path
       style="display:inline;fill:#ffffff;stroke:none;stroke-width:100;stroke-linecap:square;stroke-dasharray:none"
       d="m 19.72231,97.974375 -3.24528,5.647195 a 33.072918,33.072918 0 0 1 16.59588,28.67009 H 39.6875 A 39.687504,39.687504 0 0 0 19.72231,97.974375 Z"
       id="path127"
       inkscape:label="3" /><path
       id="path129"
       style="display:inline;fill:#ffffff;stroke:none;stroke-width:25;stroke-linecap:square;stroke-dasharray:none"
       inkscape:label="1"
       d="M 4.942334,123.69167 0,132.29166 h 9.921875 a 9.921875,9.921875 0 0 0 -4.979541,-8.59999 z" /><path
       style="display:inline;fill:#ffffff;stroke:none;stroke-width:100;stroke-linecap:square;stroke-dasharray:none"
       d="m 26.3064,86.518227 -3.29696,5.736601 a 46.30209,46.30209 0 0 1 23.29264,40.036832 h 6.61458 A 52.916672,52.916672 0 0 0 26.3064,86.518227 Z"
       id="path1"
       inkscape:label="4" /><path
       style="color:#000000;fill:#ffffff;stroke-linecap:square;-inkscape-stroke:none;stroke:none;fill-opacity:0"
       d="m 42.664062,98.806641 -6.474609,3.783199 -5.703125,3.33008 -6.476562,3.78321 7.566406,12.95312 6.476562,-3.7832 5.701172,-3.33203 6.476563,-3.78321 z"
       id="path4" /></g><g
     inkscape:groupmode="layer"
     id="g140"
     inkscape:label="V3"
     style="display:none"
     sodipodi:insensitive="true"><path
       style="display:inline;fill:#333333;stroke:none;stroke-width:25;stroke-linecap:square;stroke-dasharray:none"
       d="M 0,132.29166 H 132.29166 L 66.14583,17.197914 Z"
       id="path130"
       inkscape:label="Background" /><path
       style="color:#000000;display:inline;fill:#ffffff;stroke-linecap:square;-inkscape-stroke:none"
       d="M 97.346911,71.495219 C 79.528967,81.828179 61.712084,92.162967 43.894768,102.49701 l -0.188656,0.10942 3.776259,6.47985 0.0341,-0.0198 44.919586,-26.05336 c 2.889281,-1.663884 5.774215,-3.334487 8.645083,-5.02925 z"
       id="path131"
       sodipodi:nodetypes="cccccccc"
       inkscape:label="Shovel" /><g
       id="g135"
       inkscape:label="Human"><path
         id="path132"
         style="color:#000000;display:inline;fill:#ffffff;stroke-linecap:square;-inkscape-stroke:none"
         d="m 64.452913,61.145621 5.000211,10.000423 h 16.162838 l 4.94285,8.597925 1.877405,3.269051 8.644283,-5.028774 -1.851933,-3.222402 -6.986653,-12.156364 -0.07855,-0.136942 h -5.17e-4 L 91.400105,61.145621 H 85.990099 69.453124 Z"
         inkscape:label="LeftArm"
         sodipodi:nodetypes="cccccccccccccc" /><path
         id="path133"
         style="color:#000000;fill:#ffffff;stroke-linecap:square;-inkscape-stroke:none"
         d="m 80.837959,85.777192 -2.490287,4.336169 -9.921875,17.263549 -0.66611,1.15807 v 0.23667 0.26459 4.73511 18.5198 h 9.999907 v -18.5198 -2.56729 l 9.257832,-16.108574 z"
         inkscape:label="RightLeg" /><path
         style="color:#000000;fill:#ffffff;stroke-linecap:square;-inkscape-stroke:none"
         d="m 62.652344,56.273439 c 0.177535,6.24286 0.09554,12.489681 0.09375,18.734375 L 48.438476,99.904052 65.748153,89.852966 72.759766,77.652346 Z"
         id="path134"
         sodipodi:nodetypes="cccccc"
         inkscape:label="RightArm" /><path
         style="color:#000000;display:inline;fill:#ffffff;stroke-linecap:square;-inkscape-stroke:none"
         d="m 64.681641,49.398437 -8.669922,4.982422 2.492187,4.333985 42.260944,73.535146 11.5908,0.0985 -1.46502,-2.54772 -43.716802,-76.068358 z"
         id="path135"
         sodipodi:nodetypes="cccccccc"
         inkscape:label="Torso" /><circle
         style="fill:#ffffff;stroke:none;stroke-width:25;stroke-linecap:square;stroke-dasharray:none"
         id="circle135"
         cx="62.838543"
         cy="56.223957"
         r="9.921875"
         inkscape:label="Head" /></g><g
       id="g139"
       inkscape:label="WiFi"><path
         style="display:inline;fill:#ffffff;stroke:none;stroke-width:100;stroke-linecap:square;stroke-dasharray:none"
         d="m 13.12633,109.45171 -3.29334,5.7304 a 19.843752,19.843752 0 0 1 10.01076,17.10955 h 6.61458 a 26.458336,26.458336 0 0 0 -13.332,-22.83995 z"
         id="path136"
         inkscape:label="2" /><path
         style="display:inline;fill:#ffffff;stroke:none;stroke-width:100;stroke-linecap:square;stroke-dasharray:none"
         d="m 19.72231,97.974375 -3.24528,5.647195 a 33.072918,33.072918 0 0 1 16.59588,28.67009 H 39.6875 A 39.687504,39.687504 0 0 0 19.72231,97.974375 Z"
         id="path137"
         inkscape:label="3" /><path
         style="display:inline;fill:#ffffff;stroke:none;stroke-width:100;stroke-linecap:square;stroke-dasharray:none"
         d="m 26.3064,86.518227 -3.29696,5.736601 a 46.30209,46.30209 0 0 1 23.29264,40.036832 h 6.61458 A 52.916672,52.916672 0 0 0 26.3064,86.518227 Z"
         id="path138"
         inkscape:label="4" /><path
         id="path139"
         style="display:inline;fill:#ffffff;stroke:none;stroke-width:25;stroke-linecap:square;stroke-dasharray:none"
         inkscape:label="1"
         d="M 4.942334,123.69167 0,132.29166 h 9.921875 a 9.921875,9.921875 0 0 0 -4.979541,-8.59999 z" /></g></g><g
     inkscape:groupmode="layer"
     id="g150"
     inkscape:label="V2"
     style="display:none"
     sodipodi:insensitive="true"><path
       style="display:inline;fill:#333333;stroke:none;stroke-width:25;stroke-linecap:square;stroke-dasharray:none"
       d="M 0,132.29166 H 132.29166 L 66.14583,17.197914 Z"
       id="path140"
       inkscape:label="Background" /><path
       style="color:#000000;display:inline;fill:#ffffff;stroke-linecap:square;-inkscape-stroke:none"
       d="M 97.346911,71.495219 C 79.528967,81.828179 61.712084,92.162967 43.894768,102.49701 l -0.188656,0.10942 3.776259,6.47985 0.0341,-0.0198 44.919586,-26.05336 c 2.889281,-1.663884 5.774215,-3.334487 8.645083,-5.02925 z"
       id="path141"
       sodipodi:nodetypes="cccccccc"
       inkscape:label="Shovel" /><g
       id="g145"
       inkscape:label="Human"><path
         id="path142"
         style="color:#000000;display:inline;fill:#ffffff;stroke-linecap:square;-inkscape-stroke:none"
         d="m 64.452913,61.145621 5.000211,10.000423 h 16.162838 l 4.94285,8.597925 1.877405,3.269051 8.644283,-5.028774 -1.851933,-3.222402 -6.986653,-12.156364 -0.07855,-0.136942 h -5.17e-4 L 91.400105,61.145621 H 85.990099 69.453124 Z"
         inkscape:label="LeftArm"
         sodipodi:nodetypes="cccccccccccccc" /><path
         id="path143"
         style="color:#000000;fill:#ffffff;stroke-linecap:square;-inkscape-stroke:none"
         d="m 80.837959,85.777192 -2.490287,4.336169 -9.921875,17.263549 -0.66611,1.15807 v 0.23667 0.26459 4.73511 18.5198 h 9.999907 v -18.5198 -2.56729 l 9.257832,-16.108574 z"
         inkscape:label="RightLeg" /><path
         style="color:#000000;fill:#ffffff;stroke-linecap:square;-inkscape-stroke:none"
         d="m 62.652344,56.273439 c 0.177535,6.24286 0.09554,12.489681 0.09375,18.734375 L 48.438476,99.904052 65.748153,89.852966 72.759766,77.652346 Z"
         id="path144"
         sodipodi:nodetypes="cccccc"
         inkscape:label="RightArm" /><path
         style="color:#000000;display:inline;fill:#ffffff;stroke-linecap:square;-inkscape-stroke:none"
         d="m 64.681641,49.398437 -8.669922,4.982422 2.492187,4.333985 42.260944,73.535146 11.5908,0.0985 -1.46502,-2.54772 -43.716802,-76.068358 z"
         id="path145"
         sodipodi:nodetypes="cccccccc"
         inkscape:label="Torso" /><circle
         style="fill:#ffffff;stroke:none;stroke-width:25;stroke-linecap:square;stroke-dasharray:none"
         id="circle145"
         cx="62.838543"
         cy="56.223957"
         r="9.921875"
         inkscape:label="Head" /></g><g
       id="g149"
       inkscape:label="WiFi"><path
         style="display:inline;fill:#ffffff;stroke:none;stroke-width:100;stroke-linecap:square;stroke-dasharray:none"
         d="m 13.12633,109.45171 -3.29334,5.7304 a 19.843752,19.843752 0 0 1 10.01076,17.10955 h 6.61458 a 26.458336,26.458336 0 0 0 -13.332,-22.83995 z"
         id="path146"
         inkscape:label="2" /><path
         style="display:inline;fill:#ffffff;stroke:none;stroke-width:100;stroke-linecap:square;stroke-dasharray:none"
         d="m 19.72231,97.974375 -3.24528,5.647195 a 33.072918,33.072918 0 0 1 16.59588,28.67009 H 39.6875 A 39.687504,39.687504 0 0 0 19.72231,97.974375 Z"
         id="path147"
         inkscape:label="3" /><path
         style="display:inline;fill:#ffffff;stroke:none;stroke-width:100;stroke-linecap:square;stroke-dasharray:none"
         d="m 26.3064,86.518227 -3.29696,5.736601 a 46.30209,46.30209 0 0 1 23.29264,40.036832 h 6.61458 A 52.916672,52.916672 0 0 0 26.3064,86.518227 Z"
         id="path148"
         inkscape:label="4" /><path
         id="path149"
         style="display:inline;fill:#ffffff;stroke:none;stroke-width:25;stroke-linecap:square;stroke-dasharray:none"
         inkscape:label="1"
         d="M 4.942334,123.69167 0,132.29166 h 9.921875 a 9.921875,9.921875 0 0 0 -4.979541,-8.59999 z" /></g></g></svg>
